<?xml version="1.0" standalone="no"?>
<!DOCTYPE svg PUBLIC "-//W3C//DTD SVG 20010904//EN"
 "http://www.w3.org/TR/2001/REC-SVG-20010904/DTD/svg10.dtd">
<svg version="1.0" xmlns="http://www.w3.org/2000/svg"
 width="674.000000pt" height="674.000000pt" viewBox="0 0 674.000000 674.000000"
 preserveAspectRatio="xMidYMid meet">
<metadata>
Created by potrace 1.14, written by Peter Selinger 2001-2017
</metadata>
<g transform="translate(0.000000,674.000000) scale(0.100000,-0.100000)"
fill="#000000" stroke="none">
<path d="M2046 6303 c-2 -2 -46 -5 -97 -5 -84 -1 -186 -17 -229 -35 -8 -3 -17
-7 -20 -7 -3 -1 -16 -8 -30 -16 -14 -7 -36 -19 -50 -27 -50 -26 -139 -109
-178 -168 -54 -80 -68 -110 -92 -196 -20 -73 -20 -91 -20 -2364 1 -2243 1
-2291 20 -2360 45 -161 151 -296 292 -370 90 -47 147 -64 244 -72 292 -22 539
156 628 452 14 47 15 131 16 928 l0 837 47 0 c27 0 59 0 73 -1 14 0 31 0 38 0
33 2 165 3 197 1 11 -1 27 -1 35 -1 8 1 29 1 45 0 17 0 36 0 43 0 31 2 46 2
110 2 37 0 76 0 87 -1 11 -1 27 -1 35 -1 8 1 29 1 45 0 46 0 46 0 115 4 82 6
141 17 158 30 6 5 12 6 12 3 0 -14 138 66 186 107 83 70 131 141 185 272 23
55 35 258 18 302 -5 13 -11 36 -14 51 -8 48 -73 166 -122 223 -74 86 -219 176
-316 195 -35 7 -130 16 -159 15 -79 -2 -109 -1 -171 1 -37 2 -67 -1 -67 -5 0
-5 -5 -5 -11 -2 -5 4 -34 6 -62 5 -29 0 -56 -1 -62 -1 -5 0 -44 0 -85 0 -41 0
-88 0 -105 1 -138 4 -165 4 -165 0 0 -3 -20 -4 -45 -2 l-45 4 0 500 0 500 30
-4 c17 -3 33 -1 36 3 2 4 17 4 33 -1 16 -4 31 -6 34 -4 3 4 65 5 137 3 8 0 31
0 50 0 19 1 42 1 50 0 8 0 40 0 70 0 30 0 62 0 70 0 8 0 31 0 50 0 19 1 59 1
88 0 29 -1 55 0 58 4 3 3 18 1 34 -3 16 -4 30 -6 33 -4 3 4 65 5 137 3 8 0 31
0 50 0 19 1 42 1 50 0 20 -1 128 0 165 2 17 0 37 1 45 0 8 0 62 0 120 0 58 0
114 0 125 -1 11 -1 27 -1 35 -1 8 0 58 0 110 0 52 -1 109 0 125 1 17 1 37 2
45 1 28 -2 105 -1 290 2 156 3 195 7 250 25 187 62 335 211 393 397 31 99 31
253 0 350 -40 128 -135 255 -238 322 -53 34 -165 86 -165 78 0 -3 -8 -2 -17 3
-17 9 -105 24 -130 23 -7 -1 -20 -1 -28 -1 -8 0 -23 0 -32 0 -10 0 -34 0 -53
1 -19 1 -42 1 -50 0 -8 0 -40 0 -70 0 -30 1 -62 1 -70 0 -8 -1 -31 -1 -50 0
-19 1 -42 1 -50 0 -8 0 -58 0 -110 0 -52 1 -101 1 -107 0 -29 -2 -40 -3 -78
-2 -22 1 -47 1 -55 0 -8 0 -45 0 -82 1 -36 1 -70 0 -75 -3 -4 -2 -17 -1 -28 3
-11 4 -30 4 -42 -1 -12 -5 -25 -4 -28 0 -3 5 -20 6 -38 2 -18 -5 -41 -5 -52
-1 -11 4 -29 4 -40 0 -11 -4 -29 -6 -40 -4 -11 2 -29 4 -40 4 -80 2 -193 2
-205 1 -15 -1 -108 0 -119 1 -3 0 -10 -1 -16 -2 -5 -1 -39 -1 -75 0 -61 1 -71
1 -102 -1 -7 0 -39 0 -70 1 -31 1 -60 0 -65 -3 -4 -2 -17 -1 -28 3 -11 4 -30
4 -42 -1 -12 -5 -25 -4 -28 0 -3 5 -20 6 -38 1 -18 -4 -42 -4 -52 0 -11 4 -28
4 -38 1 -10 -4 -43 -4 -73 -1 -30 3 -59 3 -65 0 -6 -4 -27 -4 -48 0 -20 4 -45
4 -54 1 -9 -3 -59 -4 -112 -1 -54 3 -101 2 -107 -1 -5 -3 -27 -3 -48 1 -22 4
-41 5 -44 3z"/>
</g>
</svg>
