<svg width="29" height="30" viewBox="0 0 29 30" fill="none" xmlns="http://www.w3.org/2000/svg">
<path d="M19.6232 9.7C18.2094 8.2375 16.3607 7.5 14.4998 7.5V15L9.3765 20.3C12.204 23.225 16.7957 23.225 19.6353 20.3C22.4628 17.375 22.4628 12.625 19.6232 9.7ZM14.4998 2.5C7.82984 2.5 2.4165 8.1 2.4165 15C2.4165 21.9 7.82984 27.5 14.4998 27.5C21.1698 27.5 26.5832 21.9 26.5832 15C26.5832 8.1 21.1698 2.5 14.4998 2.5ZM14.4998 25C9.159 25 4.83317 20.525 4.83317 15C4.83317 9.475 9.159 5 14.4998 5C19.8407 5 24.1665 9.475 24.1665 15C24.1665 20.525 19.8407 25 14.4998 25Z" fill="#9587FF"/>
</svg>
