<svg width="105" height="59" viewBox="0 0 105 59" fill="none" xmlns="http://www.w3.org/2000/svg">
<path d="M39.816 53.416C38.204 53.416 36.774 53.1127 35.526 52.506C34.2953 51.8993 33.3333 51.0587 32.64 49.984C31.9467 48.892 31.6 47.6527 31.6 46.266V33.812C31.6 33.4827 31.704 33.214 31.912 33.006C32.12 32.798 32.3887 32.694 32.718 32.694C33.0473 32.694 33.316 32.798 33.524 33.006C33.732 33.214 33.836 33.4827 33.836 33.812V46.266C33.836 47.254 34.0873 48.1293 34.59 48.892C35.0927 49.6547 35.7947 50.2527 36.696 50.686C37.6147 51.1193 38.6547 51.336 39.816 51.336C40.96 51.336 41.9653 51.1193 42.832 50.686C43.716 50.2527 44.4093 49.6547 44.912 48.892C45.4147 48.1293 45.666 47.254 45.666 46.266V33.812C45.666 33.4827 45.77 33.214 45.978 33.006C46.2033 32.798 46.472 32.694 46.784 32.694C47.1307 32.694 47.3993 32.798 47.59 33.006C47.798 33.214 47.902 33.4827 47.902 33.812V46.266C47.902 47.6527 47.5553 48.892 46.862 49.984C46.1687 51.0587 45.2153 51.8993 44.002 52.506C42.7887 53.1127 41.3933 53.416 39.816 53.416ZM54.2239 53C53.8945 53 53.6259 52.896 53.4179 52.688C53.2099 52.48 53.1059 52.2113 53.1059 51.882V33.812C53.1059 33.4827 53.2099 33.214 53.4179 33.006C53.6259 32.798 53.8945 32.694 54.2239 32.694C54.5532 32.694 54.8219 32.798 55.0299 33.006C55.2379 33.214 55.3419 33.4827 55.3419 33.812V51.882C55.3419 52.2113 55.2379 52.48 55.0299 52.688C54.8219 52.896 54.5532 53 54.2239 53ZM66.8373 53.26C65.728 53.26 64.688 53.0953 63.7173 52.766C62.764 52.4367 61.932 51.9773 61.2213 51.388C60.5106 50.7813 59.982 50.0793 59.6353 49.282C59.4793 48.9873 59.4706 48.71 59.6093 48.45C59.7653 48.19 60.0166 48.0167 60.3633 47.93C60.6233 47.8607 60.8833 47.8953 61.1433 48.034C61.4033 48.1553 61.594 48.3547 61.7153 48.632C61.9753 49.1173 62.348 49.5593 62.8333 49.958C63.336 50.3393 63.9253 50.6427 64.6013 50.868C65.2946 51.076 66.04 51.18 66.8373 51.18C67.7386 51.18 68.5446 51.0327 69.2553 50.738C69.966 50.4433 70.5293 50.0187 70.9453 49.464C71.3613 48.9093 71.5693 48.2333 71.5693 47.436C71.5693 46.4307 71.188 45.5553 70.4253 44.81C69.6626 44.0473 68.4493 43.5707 66.7853 43.38C64.7226 43.1373 63.102 42.5047 61.9233 41.482C60.762 40.4593 60.1813 39.194 60.1813 37.686C60.1813 36.6113 60.476 35.684 61.0653 34.904C61.6546 34.1067 62.4606 33.5 63.4833 33.084C64.506 32.6507 65.6673 32.434 66.9673 32.434C67.9553 32.434 68.8393 32.59 69.6193 32.902C70.3993 33.1967 71.0753 33.5953 71.6473 34.098C72.2366 34.6007 72.722 35.164 73.1033 35.788C73.3113 36.1 73.3806 36.4033 73.3113 36.698C73.2593 36.9753 73.1033 37.192 72.8433 37.348C72.566 37.4867 72.2713 37.5127 71.9593 37.426C71.6646 37.322 71.4393 37.1313 71.2833 36.854C71.0233 36.438 70.694 36.0567 70.2953 35.71C69.914 35.346 69.446 35.06 68.8913 34.852C68.3366 34.644 67.678 34.5313 66.9153 34.514C65.5806 34.514 64.4886 34.7913 63.6393 35.346C62.79 35.9007 62.3653 36.724 62.3653 37.816C62.3653 38.3707 62.5126 38.8993 62.8073 39.402C63.1193 39.8873 63.6306 40.3033 64.3413 40.65C65.0693 40.9967 66.0573 41.2567 67.3053 41.43C69.4546 41.7073 71.0666 42.3573 72.1413 43.38C73.216 44.4027 73.7533 45.746 73.7533 47.41C73.7533 48.3633 73.5713 49.204 73.2073 49.932C72.8606 50.66 72.3666 51.2753 71.7253 51.778C71.084 52.2633 70.3386 52.636 69.4893 52.896C68.6573 53.1387 67.7733 53.26 66.8373 53.26ZM79.0813 53C78.7519 53 78.4833 52.896 78.2753 52.688C78.0673 52.48 77.9633 52.2113 77.9633 51.882V33.812C77.9633 33.4827 78.0673 33.214 78.2753 33.006C78.4833 32.798 78.7519 32.694 79.0813 32.694C79.4106 32.694 79.6793 32.798 79.8873 33.006C80.0953 33.214 80.1993 33.4827 80.1993 33.812V51.882C80.1993 52.2113 80.0953 52.48 79.8873 52.688C79.6793 52.896 79.4106 53 79.0813 53ZM94.5287 53.26C93.1247 53.26 91.8074 52.9913 90.5767 52.454C89.3634 51.9167 88.2887 51.1713 87.3527 50.218C86.4341 49.2647 85.7147 48.164 85.1947 46.916C84.6921 45.6507 84.4407 44.29 84.4407 42.834C84.4407 41.3953 84.6921 40.052 85.1947 38.804C85.7147 37.5387 86.4341 36.438 87.3527 35.502C88.2714 34.5487 89.3374 33.8033 90.5507 33.266C91.7814 32.7113 93.1074 32.434 94.5287 32.434C95.7941 32.434 96.9294 32.616 97.9347 32.98C98.9401 33.3267 99.9194 33.8987 100.873 34.696C101.029 34.8173 101.124 34.956 101.159 35.112C101.211 35.2507 101.211 35.3893 101.159 35.528C101.124 35.6667 101.063 35.788 100.977 35.892C100.942 36.0827 100.838 36.2387 100.665 36.36C100.509 36.464 100.318 36.516 100.093 36.516C99.8674 36.516 99.6421 36.4293 99.4167 36.256C98.7581 35.6667 98.0474 35.2333 97.2847 34.956C96.5221 34.6613 95.6034 34.514 94.5287 34.514C93.4367 34.514 92.4054 34.7393 91.4347 35.19C90.4814 35.6233 89.6407 36.2213 88.9127 36.984C88.1847 37.7467 87.6127 38.6307 87.1967 39.636C86.7981 40.6413 86.5987 41.7073 86.5987 42.834C86.5987 43.9953 86.7981 45.0787 87.1967 46.084C87.6127 47.0893 88.1847 47.9733 88.9127 48.736C89.6407 49.4987 90.4814 50.0967 91.4347 50.53C92.4054 50.9633 93.4367 51.18 94.5287 51.18C95.4474 51.18 96.3227 51.024 97.1547 50.712C97.9867 50.4 98.7841 49.958 99.5467 49.386C99.7894 49.1953 100.032 49.1173 100.275 49.152C100.535 49.1867 100.751 49.2993 100.925 49.49C101.115 49.6633 101.211 49.906 101.211 50.218C101.211 50.374 101.185 50.5127 101.133 50.634C101.081 50.7553 101.003 50.8853 100.899 51.024C99.9974 51.804 99.0007 52.376 97.9087 52.74C96.8341 53.0867 95.7074 53.26 94.5287 53.26Z" fill="url(#paint0_linear_99_8)"/>
<path d="M7 49V7H34.3731" stroke="url(#paint1_linear_99_8)" stroke-width="13" stroke-linecap="round" stroke-linejoin="round"/>
<path d="M7 49V26.7647H21.128" stroke="url(#paint2_linear_99_8)" stroke-width="13" stroke-linecap="round" stroke-linejoin="round"/>
<defs>
<linearGradient id="paint0_linear_99_8" x1="105" y1="30" x2="99.8421" y2="68.4927" gradientUnits="userSpaceOnUse">
<stop stop-color="#6BDCFF"/>
<stop offset="1" stop-color="#3848FF"/>
</linearGradient>
<linearGradient id="paint1_linear_99_8" x1="32.6071" y1="7" x2="9.60155" y2="50.3797" gradientUnits="userSpaceOnUse">
<stop stop-color="#6BDCFF"/>
<stop offset="0.725714" stop-color="#3848FF"/>
</linearGradient>
<linearGradient id="paint2_linear_99_8" x1="21.128" y1="26.7647" x2="8.40873" y2="49.7786" gradientUnits="userSpaceOnUse">
<stop stop-color="#6BDCFF"/>
<stop offset="1" stop-color="#3848FF"/>
</linearGradient>
</defs>
</svg>
