<svg width="88" height="103" viewBox="0 0 88 103" fill="none" xmlns="http://www.w3.org/2000/svg">
<g filter="url(#filter0_d_238_1108)">
<rect x="4" width="80" height="95" fill="#F4F4F4"/>
</g>
<path fill-rule="evenodd" clip-rule="evenodd" d="M31.3572 11.6454C27.8725 11.6454 25.0476 14.4816 25.0476 17.9801V64.6455C25.0476 68.1442 27.8725 70.9802 31.3572 70.9802C34.8418 70.9802 37.6667 68.1442 37.6667 64.6455V24.3148H60.1706C63.6554 24.3148 66.4802 21.4786 66.4802 17.9801C66.4802 14.4816 63.6554 11.6454 60.1706 11.6454H31.3572Z" fill="url(#paint0_linear_238_1108)"/>
<path fill-rule="evenodd" clip-rule="evenodd" d="M31.3571 34.8725C27.8725 34.8725 25.0476 37.7085 25.0476 41.2071V64.6454C25.0476 68.144 27.8725 70.98 31.3571 70.98C34.8418 70.98 37.6667 68.144 37.6667 64.6454V47.5418H46.5C49.9847 47.5418 52.8095 44.7058 52.8095 41.2071C52.8095 37.7085 49.9847 34.8725 46.5 34.8725H31.3571Z" fill="url(#paint1_linear_238_1108)"/>
<path d="M23.1279 76.8047H30.064V78.0791H24.5928V81.082H28.8188V82.3125H24.5928V87H23.1279V76.8047ZM31.9023 76.8047H33.3672V87H31.9023V76.8047ZM39.5122 85.8574C41.1138 85.8574 41.9146 84.8735 41.9146 82.9058V76.8047H43.3794V82.9058C43.3794 84.3462 43.0156 85.4253 42.2881 86.1431C41.6289 86.7925 40.7036 87.1172 39.5122 87.1172C37.6714 87.1172 36.4775 86.3579 35.9307 84.8394C35.7354 84.3071 35.6377 83.6626 35.6377 82.9058V76.8047H37.1025V82.9058C37.1025 84.8735 37.9058 85.8574 39.5122 85.8574ZM51.4507 86.2896C51.104 86.5337 50.6597 86.7266 50.1177 86.8682C49.5757 87.0049 48.9116 87.0732 48.1255 87.0732C47.3442 87.0732 46.5557 87.0269 45.7598 86.9341V85.5132C46.4727 85.6743 47.1904 85.7549 47.9131 85.7549C48.6357 85.7549 49.1777 85.7158 49.5391 85.6377C49.9004 85.5547 50.1909 85.4473 50.4106 85.3154C50.8159 85.0713 51.0186 84.7539 51.0186 84.3633C51.0186 84.0605 50.9404 83.8262 50.7842 83.6602C50.5352 83.4014 50.1763 83.1646 49.7075 82.9497L47.8325 82.0928C47.188 81.79 46.7314 81.5093 46.4629 81.2505C45.8867 80.6938 45.5986 80.0493 45.5986 79.3169C45.5986 78.5649 45.9258 77.957 46.5801 77.4932C47.2979 76.9854 48.3184 76.7314 49.6416 76.7314C50.4961 76.7314 51.2773 76.7656 51.9854 76.834V78.2329C51.3848 78.0962 50.7134 78.0278 49.9712 78.0278C49.2339 78.0278 48.6968 78.0669 48.3599 78.145C48.0278 78.2183 47.7666 78.3135 47.5762 78.4307C47.2295 78.6455 47.0562 78.9287 47.0562 79.2803C47.0562 79.6221 47.166 79.9053 47.3857 80.1299C47.5811 80.3203 47.9375 80.54 48.4551 80.7891L50.3813 81.7046C51.021 82.0073 51.4678 82.293 51.7217 82.5615C51.9805 82.8301 52.1709 83.1011 52.293 83.3745C52.415 83.6431 52.4761 83.9678 52.4761 84.3486C52.4761 84.7246 52.3931 85.0811 52.2271 85.418C52.061 85.75 51.8022 86.0405 51.4507 86.2896ZM54.417 76.8047H55.8818V87H54.417V76.8047ZM65.0811 86.9414C64.5977 87.0293 63.9458 87.0732 63.1255 87.0732C62.3101 87.0732 61.5728 86.9609 60.9136 86.7363C60.2593 86.5117 59.6953 86.1797 59.2217 85.7402C58.2061 84.7979 57.6982 83.4844 57.6982 81.7998C57.6982 80.7012 57.9595 79.749 58.4819 78.9434C59.1899 77.8545 60.2764 77.1611 61.7412 76.8633C62.1904 76.7754 62.7251 76.7314 63.3452 76.7314C63.9702 76.7314 64.4707 76.7656 64.8467 76.834V78.2329C64.5049 78.1255 63.9751 78.0718 63.2573 78.0718C62.5444 78.0718 61.939 78.1597 61.4409 78.3354C60.9429 78.5112 60.5303 78.7627 60.2031 79.0898C59.5488 79.7295 59.2217 80.6328 59.2217 81.7998C59.2217 82.9766 59.5439 83.9092 60.1885 84.5977C60.8867 85.3398 61.8901 85.7109 63.1987 85.7109C63.9653 85.7109 64.5928 85.6523 65.0811 85.5352V86.9414Z" fill="black"/>
<defs>
<filter id="filter0_d_238_1108" x="0" y="0" width="88" height="103" filterUnits="userSpaceOnUse" color-interpolation-filters="sRGB">
<feFlood flood-opacity="0" result="BackgroundImageFix"/>
<feColorMatrix in="SourceAlpha" type="matrix" values="0 0 0 0 0 0 0 0 0 0 0 0 0 0 0 0 0 0 127 0" result="hardAlpha"/>
<feOffset dy="4"/>
<feGaussianBlur stdDeviation="2"/>
<feComposite in2="hardAlpha" operator="out"/>
<feColorMatrix type="matrix" values="0 0 0 0 0 0 0 0 0 0 0 0 0 0 0 0 0 0 0.25 0"/>
<feBlend mode="normal" in2="BackgroundImageFix" result="effect1_dropShadow_238_1108"/>
<feBlend mode="normal" in="SourceGraphic" in2="effect1_dropShadow_238_1108" result="shape"/>
</filter>
<linearGradient id="paint0_linear_238_1108" x1="59.3294" y1="19.247" x2="27.9623" y2="30.7795" gradientUnits="userSpaceOnUse">
<stop stop-color="#48C1FF"/>
<stop offset="1" stop-color="#0078FF"/>
</linearGradient>
<linearGradient id="paint1_linear_238_1108" x1="30.7262" y1="59.3665" x2="48.6885" y2="37.4763" gradientUnits="userSpaceOnUse">
<stop stop-color="#0078FF"/>
<stop offset="1" stop-color="#48C1FF"/>
</linearGradient>
</defs>
</svg>
