<svg width="393" height="466" viewBox="0 0 393 466" fill="none" xmlns="http://www.w3.org/2000/svg">
<g filter="url(#filter0_d_382_1117)">
<rect x="4" width="385" height="457.188" fill="white"/>
</g>
<path fill-rule="evenodd" clip-rule="evenodd" d="M135.658 56.0417C118.888 56.0417 105.293 69.6907 105.293 86.5274V311.105C105.293 327.942 118.888 341.591 135.658 341.591C152.428 341.591 166.023 327.942 166.023 311.105V117.013H274.324C291.094 117.013 304.688 103.364 304.688 86.5274C304.688 69.6907 291.094 56.0417 274.324 56.0417H135.658Z" fill="url(#paint0_linear_382_1117)"/>
<path fill-rule="evenodd" clip-rule="evenodd" d="M135.658 167.821C118.888 167.821 105.293 181.47 105.293 198.307V311.103C105.293 327.941 118.888 341.589 135.658 341.589C152.427 341.589 166.022 327.941 166.022 311.103V228.793H208.532C225.303 228.793 238.897 215.144 238.897 198.307C238.897 181.47 225.303 167.821 208.532 167.821H135.658Z" fill="url(#paint1_linear_382_1117)"/>
<path d="M107.899 366.998H137.493V372.436H114.149V385.248H132.18V390.498H114.149V410.498H107.899V366.998ZM161.805 405.623C168.639 405.623 172.055 401.425 172.055 393.029V366.998H178.305V393.029C178.305 399.175 176.753 403.779 173.649 406.842C170.837 409.613 166.889 410.998 161.805 410.998C153.951 410.998 148.858 407.759 146.524 401.279C145.691 399.009 145.274 396.259 145.274 393.029V366.998H151.524V393.029C151.524 401.425 154.951 405.623 161.805 405.623ZM188.024 366.998H194.274V410.498H188.024V366.998ZM228.743 407.467C227.264 408.509 225.368 409.331 223.055 409.936C220.743 410.519 217.91 410.811 214.555 410.811C211.222 410.811 207.858 410.613 204.462 410.217V404.154C207.503 404.842 210.566 405.186 213.649 405.186C216.733 405.186 219.045 405.019 220.587 404.686C222.128 404.331 223.368 403.873 224.305 403.311C226.035 402.269 226.899 400.915 226.899 399.248C226.899 397.956 226.566 396.956 225.899 396.248C224.837 395.144 223.305 394.134 221.305 393.217L213.305 389.561C210.555 388.269 208.608 387.071 207.462 385.967C205.003 383.592 203.774 380.842 203.774 377.717C203.774 374.509 205.17 371.915 207.962 369.936C211.024 367.769 215.378 366.686 221.024 366.686C224.67 366.686 228.003 366.831 231.024 367.123V373.092C228.462 372.509 225.597 372.217 222.43 372.217C219.285 372.217 216.993 372.384 215.555 372.717C214.139 373.029 213.024 373.436 212.212 373.936C210.733 374.852 209.993 376.061 209.993 377.561C209.993 379.019 210.462 380.227 211.399 381.186C212.233 381.998 213.753 382.936 215.962 383.998L224.18 387.904C226.91 389.196 228.816 390.415 229.899 391.561C231.003 392.706 231.816 393.863 232.337 395.029C232.858 396.175 233.118 397.561 233.118 399.186C233.118 400.79 232.764 402.311 232.055 403.748C231.347 405.165 230.243 406.404 228.743 407.467ZM241.399 366.998H247.649V410.498H241.399V366.998ZM286.899 410.248C284.837 410.623 282.055 410.811 278.555 410.811C275.076 410.811 271.93 410.331 269.118 409.373C266.326 408.415 263.92 406.998 261.899 405.123C257.566 401.102 255.399 395.498 255.399 388.311C255.399 383.623 256.514 379.561 258.743 376.123C261.764 371.477 266.399 368.519 272.649 367.248C274.566 366.873 276.847 366.686 279.493 366.686C282.16 366.686 284.295 366.831 285.899 367.123V373.092C284.441 372.634 282.18 372.404 279.118 372.404C276.076 372.404 273.493 372.779 271.368 373.529C269.243 374.279 267.483 375.352 266.087 376.748C263.295 379.477 261.899 383.331 261.899 388.311C261.899 393.331 263.274 397.311 266.024 400.248C269.003 403.415 273.285 404.998 278.868 404.998C282.139 404.998 284.816 404.748 286.899 404.248V410.248Z" fill="black"/>
<defs>
<filter id="filter0_d_382_1117" x="0" y="0" width="393" height="465.188" filterUnits="userSpaceOnUse" color-interpolation-filters="sRGB">
<feFlood flood-opacity="0" result="BackgroundImageFix"/>
<feColorMatrix in="SourceAlpha" type="matrix" values="0 0 0 0 0 0 0 0 0 0 0 0 0 0 0 0 0 0 127 0" result="hardAlpha"/>
<feOffset dy="4"/>
<feGaussianBlur stdDeviation="2"/>
<feComposite in2="hardAlpha" operator="out"/>
<feColorMatrix type="matrix" values="0 0 0 0 0 0 0 0 0 0 0 0 0 0 0 0 0 0 0.25 0"/>
<feBlend mode="normal" in2="BackgroundImageFix" result="effect1_dropShadow_382_1117"/>
<feBlend mode="normal" in="SourceGraphic" in2="effect1_dropShadow_382_1117" result="shape"/>
</filter>
<linearGradient id="paint0_linear_382_1117" x1="270.275" y1="92.6245" x2="119.32" y2="148.125" gradientUnits="userSpaceOnUse">
<stop stop-color="#48C1FF"/>
<stop offset="1" stop-color="#0078FF"/>
</linearGradient>
<linearGradient id="paint1_linear_382_1117" x1="132.621" y1="285.699" x2="219.064" y2="180.353" gradientUnits="userSpaceOnUse">
<stop stop-color="#0078FF"/>
<stop offset="1" stop-color="#48C1FF"/>
</linearGradient>
</defs>
</svg>
