<svg width="33" height="33" viewBox="0 0 33 33" fill="none" xmlns="http://www.w3.org/2000/svg">
<path d="M21.9905 7.34597C17.9465 3.30196 11.3898 3.30196 7.34583 7.34597C3.30182 11.39 3.30182 17.9466 7.34583 21.9906C11.3898 26.0347 17.9465 26.0347 21.9905 21.9906C26.0345 17.9466 26.0345 11.39 21.9905 7.34597ZM4.98881 4.98895C10.3346 -0.356811 19.0018 -0.356811 24.3475 4.98895C29.2943 9.93578 29.6635 17.7268 25.455 23.0981L32.3315 29.9746C32.9823 30.6255 32.9823 31.6807 32.3315 32.3316C31.6806 32.9825 30.6253 32.9825 29.9744 32.3316L23.098 25.4551C17.7267 29.6637 9.93564 29.2945 4.98881 24.3477C-0.356948 19.0019 -0.356948 10.3347 4.98881 4.98895Z" fill="black"/>
</svg>
