<svg width="881" height="105" viewBox="0 0 881 105" fill="none" xmlns="http://www.w3.org/2000/svg">
<path d="M0 13H881V15H0V13Z" fill="#40424E"/>
<path d="M173 14.5C173 20.299 168.299 25 162.5 25C156.701 25 152 20.299 152 14.5C152 8.70101 156.701 4 162.5 4C168.299 4 173 8.70101 173 14.5Z" fill="#40424E"/>
<path d="M176 11C176 16.5228 171.523 21 166 21C160.477 21 156 16.5228 156 11C156 5.47715 160.477 1 166 1C171.523 1 176 5.47715 176 11Z" stroke="#9587FF" stroke-width="2"/>
<path d="M449 14.5C449 20.299 444.299 25 438.5 25C432.701 25 428 20.299 428 14.5C428 8.70101 432.701 4 438.5 4C444.299 4 449 8.70101 449 14.5Z" fill="#40424E"/>
<path d="M725 14.5C725 20.299 720.299 25 714.5 25C708.701 25 704 20.299 704 14.5C704 8.70101 708.701 4 714.5 4C720.299 4 725 8.70101 725 14.5Z" fill="#40424E"/>
<path d="M451 11C451 16.5228 446.523 21 441 21C435.477 21 431 16.5228 431 11C431 5.47715 435.477 1 441 1C446.523 1 451 5.47715 451 11Z" stroke="#9587FF" stroke-width="2"/>
<path d="M728 11C728 16.5228 723.523 21 718 21C712.477 21 708 16.5228 708 11C708 5.47715 712.477 1 718 1C723.523 1 728 5.47715 728 11Z" stroke="#9587FF" stroke-width="2"/>
<path d="M118.441 58H116.461V50.674H108.409V58H106.429V42.292H108.409V48.936H116.461V42.292H118.441V58ZM126.938 46.01C128.375 46.01 129.438 46.3253 130.128 46.956C130.817 47.5867 131.162 48.5913 131.162 49.97V58H129.754L129.38 56.328H129.292C128.954 56.7533 128.602 57.1127 128.236 57.406C127.884 57.6847 127.473 57.89 127.004 58.022C126.549 58.154 125.992 58.22 125.332 58.22C124.628 58.22 123.99 58.0953 123.418 57.846C122.86 57.5967 122.42 57.2153 122.098 56.702C121.775 56.174 121.614 55.514 121.614 54.722C121.614 53.5487 122.076 52.6467 123 52.016C123.924 51.3707 125.346 51.0187 127.268 50.96L129.27 50.894V50.19C129.27 49.2073 129.057 48.5253 128.632 48.144C128.206 47.7627 127.605 47.572 126.828 47.572C126.212 47.572 125.625 47.6673 125.068 47.858C124.51 48.034 123.99 48.2393 123.506 48.474L122.912 47.022C123.425 46.7433 124.034 46.5087 124.738 46.318C125.442 46.1127 126.175 46.01 126.938 46.01ZM127.51 52.302C126.043 52.3607 125.024 52.5953 124.452 53.006C123.894 53.4167 123.616 53.996 123.616 54.744C123.616 55.404 123.814 55.888 124.21 56.196C124.62 56.504 125.141 56.658 125.772 56.658C126.769 56.658 127.598 56.3867 128.258 55.844C128.918 55.2867 129.248 54.436 129.248 53.292V52.236L127.51 52.302ZM148.95 46.208L144.088 51.928L149.368 58H147.168L142.064 52.016V58H140.26V52.016L135.156 58H132.956L138.236 51.928L133.374 46.208H135.486L140.26 51.928V46.208H142.064V51.928L146.86 46.208H148.95ZM163.954 46.208V58H162.216V50.476C162.216 50.168 162.223 49.8453 162.238 49.508C162.267 49.1707 162.296 48.8407 162.326 48.518H162.26L158.41 58H156.782L153.042 48.518H152.976C153.005 48.8407 153.02 49.1707 153.02 49.508C153.034 49.8453 153.042 50.19 153.042 50.542V58H151.304V46.208H153.878L157.596 55.69L161.38 46.208H163.954ZM169.544 53.402C169.544 53.534 169.536 53.7247 169.522 53.974C169.522 54.2087 169.514 54.4653 169.5 54.744C169.485 55.008 169.47 55.2647 169.456 55.514C169.441 55.7487 169.426 55.9393 169.412 56.086L175.726 46.208H178.102V58H176.298V51.048C176.298 50.8133 176.298 50.5053 176.298 50.124C176.312 49.7427 176.327 49.3687 176.342 49.002C176.356 48.6207 176.371 48.3347 176.386 48.144L170.116 58H167.718V46.208H169.544V53.402ZM189.994 47.836H186.144V58H184.23V47.836H180.424V46.208H189.994V47.836ZM196.656 45.988C197.668 45.988 198.534 46.208 199.252 46.648C199.986 47.088 200.543 47.7113 200.924 48.518C201.32 49.31 201.518 50.2413 201.518 51.312V52.478H193.444C193.474 53.8127 193.811 54.832 194.456 55.536C195.116 56.2253 196.033 56.57 197.206 56.57C197.954 56.57 198.614 56.504 199.186 56.372C199.773 56.2253 200.374 56.02 200.99 55.756V57.45C200.389 57.714 199.795 57.9047 199.208 58.022C198.622 58.154 197.925 58.22 197.118 58.22C196.004 58.22 195.014 57.9927 194.148 57.538C193.298 57.0833 192.63 56.4087 192.146 55.514C191.677 54.6047 191.442 53.4973 191.442 52.192C191.442 50.9013 191.655 49.794 192.08 48.87C192.52 47.946 193.129 47.2347 193.906 46.736C194.698 46.2373 195.615 45.988 196.656 45.988ZM196.634 47.572C195.71 47.572 194.977 47.8727 194.434 48.474C193.906 49.0607 193.591 49.882 193.488 50.938H199.494C199.494 50.2633 199.392 49.6767 199.186 49.178C198.981 48.6793 198.666 48.2907 198.24 48.012C197.83 47.7187 197.294 47.572 196.634 47.572ZM212.171 46.208V51.114H218.573V46.208H220.509V58H218.573V52.742H212.171V58H210.235V46.208H212.171ZM228.709 46.01C230.146 46.01 231.21 46.3253 231.899 46.956C232.588 47.5867 232.933 48.5913 232.933 49.97V58H231.525L231.151 56.328H231.063C230.726 56.7533 230.374 57.1127 230.007 57.406C229.655 57.6847 229.244 57.89 228.775 58.022C228.32 58.154 227.763 58.22 227.103 58.22C226.399 58.22 225.761 58.0953 225.189 57.846C224.632 57.5967 224.192 57.2153 223.869 56.702C223.546 56.174 223.385 55.514 223.385 54.722C223.385 53.5487 223.847 52.6467 224.771 52.016C225.695 51.3707 227.118 51.0187 229.039 50.96L231.041 50.894V50.19C231.041 49.2073 230.828 48.5253 230.403 48.144C229.978 47.7627 229.376 47.572 228.599 47.572C227.983 47.572 227.396 47.6673 226.839 47.858C226.282 48.034 225.761 48.2393 225.277 48.474L224.683 47.022C225.196 46.7433 225.805 46.5087 226.509 46.318C227.213 46.1127 227.946 46.01 228.709 46.01ZM229.281 52.302C227.814 52.3607 226.795 52.5953 226.223 53.006C225.666 53.4167 225.387 53.996 225.387 54.744C225.387 55.404 225.585 55.888 225.981 56.196C226.392 56.504 226.912 56.658 227.543 56.658C228.54 56.658 229.369 56.3867 230.029 55.844C230.689 55.2867 231.019 54.436 231.019 53.292V52.236L229.281 52.302ZM140.564 79.208H142.676L137.638 84.884L143.094 91H140.85L135.526 85.016V91H133.59V79.208H135.526V84.928L140.564 79.208ZM147.17 79.208V84.114H153.572V79.208H155.508V91H153.572V85.742H147.17V91H145.234V79.208H147.17ZM169.494 85.082C169.494 86.0647 169.362 86.9373 169.098 87.7C168.849 88.448 168.482 89.086 167.998 89.614C167.529 90.142 166.949 90.5453 166.26 90.824C165.585 91.088 164.83 91.22 163.994 91.22C163.217 91.22 162.498 91.088 161.838 90.824C161.178 90.5453 160.606 90.142 160.122 89.614C159.638 89.086 159.257 88.448 158.978 87.7C158.714 86.9373 158.582 86.0647 158.582 85.082C158.582 83.7767 158.802 82.6767 159.242 81.782C159.682 80.8727 160.313 80.1833 161.134 79.714C161.955 79.23 162.931 78.988 164.06 78.988C165.131 78.988 166.069 79.23 166.876 79.714C167.697 80.1833 168.335 80.8727 168.79 81.782C169.259 82.6767 169.494 83.7767 169.494 85.082ZM160.584 85.082C160.584 86.006 160.701 86.8127 160.936 87.502C161.185 88.1767 161.567 88.6973 162.08 89.064C162.593 89.4307 163.246 89.614 164.038 89.614C164.83 89.614 165.483 89.4307 165.996 89.064C166.509 88.6973 166.883 88.1767 167.118 87.502C167.367 86.8127 167.492 86.006 167.492 85.082C167.492 84.1433 167.367 83.344 167.118 82.684C166.869 82.024 166.487 81.518 165.974 81.166C165.475 80.7993 164.823 80.616 164.016 80.616C162.813 80.616 161.941 81.012 161.398 81.804C160.855 82.596 160.584 83.6887 160.584 85.082ZM182.528 79.208V91H180.592V80.858H174.498V91H172.562V79.208H182.528ZM193.265 79.208H195.377L190.339 84.884L195.795 91H193.551L188.227 85.016V91H186.291V79.208H188.227V84.928L193.265 79.208ZM196.087 79.208H198.155L200.707 85.918C200.854 86.314 200.986 86.6953 201.103 87.062C201.235 87.4287 201.353 87.788 201.455 88.14C201.558 88.4773 201.639 88.8073 201.697 89.13H201.785C201.873 88.7633 202.013 88.2867 202.203 87.7C202.394 87.0987 202.592 86.4973 202.797 85.896L205.195 79.208H207.285L202.203 92.628C201.925 93.3613 201.595 93.9993 201.213 94.542C200.847 95.0993 200.392 95.5247 199.849 95.818C199.321 96.126 198.676 96.28 197.913 96.28C197.561 96.28 197.253 96.258 196.989 96.214C196.725 96.1847 196.498 96.148 196.307 96.104V94.564C196.469 94.5933 196.659 94.6227 196.879 94.652C197.114 94.6813 197.356 94.696 197.605 94.696C198.06 94.696 198.449 94.608 198.771 94.432C199.109 94.2707 199.395 94.0287 199.629 93.706C199.864 93.398 200.062 93.0313 200.223 92.606L200.839 91.044L196.087 79.208Z" fill="black"/>
<path d="M400.904 48.81C400.068 48.81 399.313 48.9567 398.638 49.25C397.963 49.5287 397.391 49.9467 396.922 50.504C396.453 51.0467 396.093 51.714 395.844 52.506C395.595 53.2833 395.47 54.1633 395.47 55.146C395.47 56.4367 395.668 57.5587 396.064 58.512C396.475 59.4653 397.076 60.1987 397.868 60.712C398.675 61.2253 399.679 61.482 400.882 61.482C401.571 61.482 402.224 61.4233 402.84 61.306C403.456 61.1887 404.057 61.042 404.644 60.866V62.582C404.057 62.802 403.449 62.9633 402.818 63.066C402.202 63.1687 401.461 63.22 400.596 63.22C398.997 63.22 397.663 62.89 396.592 62.23C395.521 61.57 394.715 60.6313 394.172 59.414C393.644 58.1967 393.38 56.7667 393.38 55.124C393.38 53.936 393.541 52.8507 393.864 51.868C394.201 50.8853 394.685 50.0347 395.316 49.316C395.961 48.5973 396.753 48.0473 397.692 47.666C398.631 47.27 399.709 47.072 400.926 47.072C401.733 47.072 402.51 47.1527 403.258 47.314C404.006 47.4753 404.673 47.7027 405.26 47.996L404.468 49.668C403.984 49.448 403.441 49.25 402.84 49.074C402.253 48.898 401.608 48.81 400.904 48.81ZM418.06 57.082C418.06 58.0647 417.928 58.9373 417.664 59.7C417.415 60.448 417.048 61.086 416.564 61.614C416.095 62.142 415.516 62.5453 414.826 62.824C414.152 63.088 413.396 63.22 412.56 63.22C411.783 63.22 411.064 63.088 410.404 62.824C409.744 62.5453 409.172 62.142 408.688 61.614C408.204 61.086 407.823 60.448 407.544 59.7C407.28 58.9373 407.148 58.0647 407.148 57.082C407.148 55.7767 407.368 54.6767 407.808 53.782C408.248 52.8727 408.879 52.1833 409.7 51.714C410.522 51.23 411.497 50.988 412.626 50.988C413.697 50.988 414.636 51.23 415.442 51.714C416.264 52.1833 416.902 52.8727 417.356 53.782C417.826 54.6767 418.06 55.7767 418.06 57.082ZM409.15 57.082C409.15 58.006 409.268 58.8127 409.502 59.502C409.752 60.1767 410.133 60.6973 410.646 61.064C411.16 61.4307 411.812 61.614 412.604 61.614C413.396 61.614 414.049 61.4307 414.562 61.064C415.076 60.6973 415.45 60.1767 415.684 59.502C415.934 58.8127 416.058 58.006 416.058 57.082C416.058 56.1433 415.934 55.344 415.684 54.684C415.435 54.024 415.054 53.518 414.54 53.166C414.042 52.7993 413.389 52.616 412.582 52.616C411.38 52.616 410.507 53.012 409.964 53.804C409.422 54.596 409.15 55.6887 409.15 57.082ZM424.231 50.988C425.125 50.988 425.903 51.1127 426.563 51.362C427.223 51.5967 427.736 51.9487 428.103 52.418C428.469 52.8727 428.653 53.43 428.653 54.09C428.653 54.8087 428.455 55.3807 428.059 55.806C427.663 56.2167 427.12 56.5173 426.431 56.708V56.796C426.9 56.928 427.333 57.1113 427.729 57.346C428.125 57.5807 428.44 57.8887 428.675 58.27C428.924 58.6513 429.049 59.1427 429.049 59.744C429.049 60.3893 428.865 60.976 428.499 61.504C428.147 62.032 427.597 62.45 426.849 62.758C426.115 63.066 425.169 63.22 424.011 63.22C423.453 63.22 422.918 63.1907 422.405 63.132C421.906 63.0733 421.451 62.9853 421.041 62.868C420.645 62.7507 420.293 62.6113 419.985 62.45V60.712C420.483 60.9467 421.07 61.1593 421.745 61.35C422.434 61.5407 423.182 61.636 423.989 61.636C424.575 61.636 425.103 61.57 425.573 61.438C426.057 61.306 426.438 61.1007 426.717 60.822C426.995 60.5287 427.135 60.1327 427.135 59.634C427.135 59.1793 427.01 58.8127 426.761 58.534C426.511 58.2407 426.137 58.0207 425.639 57.874C425.155 57.7273 424.531 57.654 423.769 57.654H422.185V56.07H423.461C424.473 56.07 425.279 55.938 425.881 55.674C426.497 55.3953 426.805 54.926 426.805 54.266C426.805 53.7087 426.57 53.2907 426.101 53.012C425.646 52.7333 424.986 52.594 424.121 52.594C423.475 52.594 422.903 52.66 422.405 52.792C421.921 52.9093 421.385 53.0927 420.799 53.342L420.117 51.802C420.747 51.5233 421.407 51.318 422.097 51.186C422.786 51.054 423.497 50.988 424.231 50.988ZM440.67 51.208V61.372H442.386V67.092H440.516V63H432.31V67.092H430.462V61.372H431.408C432.083 60.4333 432.64 59.414 433.08 58.314C433.535 57.1993 433.872 56.0407 434.092 54.838C434.327 53.6207 434.451 52.4107 434.466 51.208H440.67ZM436.182 52.726C436.123 53.7233 435.969 54.7573 435.72 55.828C435.471 56.884 435.148 57.896 434.752 58.864C434.371 59.832 433.923 60.668 433.41 61.372H438.8V52.726H436.182ZM449.163 51.01C450.6 51.01 451.664 51.3253 452.353 51.956C453.042 52.5867 453.387 53.5913 453.387 54.97V63H451.979L451.605 61.328H451.517C451.18 61.7533 450.828 62.1127 450.461 62.406C450.109 62.6847 449.698 62.89 449.229 63.022C448.774 63.154 448.217 63.22 447.557 63.22C446.853 63.22 446.215 63.0953 445.643 62.846C445.086 62.5967 444.646 62.2153 444.323 61.702C444 61.174 443.839 60.514 443.839 59.722C443.839 58.5487 444.301 57.6467 445.225 57.016C446.149 56.3707 447.572 56.0187 449.493 55.96L451.495 55.894V55.19C451.495 54.2073 451.282 53.5253 450.857 53.144C450.432 52.7627 449.83 52.572 449.053 52.572C448.437 52.572 447.85 52.6673 447.293 52.858C446.736 53.034 446.215 53.2393 445.731 53.474L445.137 52.022C445.65 51.7433 446.259 51.5087 446.963 51.318C447.667 51.1127 448.4 51.01 449.163 51.01ZM449.735 57.302C448.268 57.3607 447.249 57.5953 446.677 58.006C446.12 58.4167 445.841 58.996 445.841 59.744C445.841 60.404 446.039 60.888 446.435 61.196C446.846 61.504 447.366 61.658 447.997 61.658C448.994 61.658 449.823 61.3867 450.483 60.844C451.143 60.2867 451.473 59.436 451.473 58.292V57.236L449.735 57.302ZM466.577 46.324C466.519 47.0573 466.335 47.6733 466.027 48.172C465.734 48.6707 465.294 49.0447 464.707 49.294C464.121 49.5433 463.358 49.668 462.419 49.668C461.466 49.668 460.696 49.5433 460.109 49.294C459.537 49.0447 459.119 48.678 458.855 48.194C458.591 47.6953 458.43 47.072 458.371 46.324H460.175C460.249 47.116 460.454 47.6513 460.791 47.93C461.143 48.194 461.701 48.326 462.463 48.326C463.138 48.326 463.666 48.1867 464.047 47.908C464.443 47.6147 464.678 47.0867 464.751 46.324H466.577ZM458.855 58.402C458.855 58.534 458.848 58.7247 458.833 58.974C458.833 59.2087 458.826 59.4653 458.811 59.744C458.797 60.008 458.782 60.2647 458.767 60.514C458.753 60.7487 458.738 60.9393 458.723 61.086L465.037 51.208H467.413V63H465.609V56.048C465.609 55.8133 465.609 55.5053 465.609 55.124C465.624 54.7427 465.639 54.3687 465.653 54.002C465.668 53.6207 465.683 53.3347 465.697 53.144L459.427 63H457.029V51.208H458.855V58.402ZM479.306 52.836H475.456V63H473.542V52.836H469.736V51.208H479.306V52.836ZM485.968 50.988C486.98 50.988 487.845 51.208 488.564 51.648C489.297 52.088 489.855 52.7113 490.236 53.518C490.632 54.31 490.83 55.2413 490.83 56.312V57.478H482.756C482.785 58.8127 483.123 59.832 483.768 60.536C484.428 61.2253 485.345 61.57 486.518 61.57C487.266 61.57 487.926 61.504 488.498 61.372C489.085 61.2253 489.686 61.02 490.302 60.756V62.45C489.701 62.714 489.107 62.9047 488.52 63.022C487.933 63.154 487.237 63.22 486.43 63.22C485.315 63.22 484.325 62.9927 483.46 62.538C482.609 62.0833 481.942 61.4087 481.458 60.514C480.989 59.6047 480.754 58.4973 480.754 57.192C480.754 55.9013 480.967 54.794 481.392 53.87C481.832 52.946 482.441 52.2347 483.218 51.736C484.01 51.2373 484.927 50.988 485.968 50.988ZM485.946 52.572C485.022 52.572 484.289 52.8727 483.746 53.474C483.218 54.0607 482.903 54.882 482.8 55.938H488.806C488.806 55.2633 488.703 54.6767 488.498 54.178C488.293 53.6793 487.977 53.2907 487.552 53.012C487.141 52.7187 486.606 52.572 485.946 52.572ZM405.614 84.208V96H403.678V85.858H397.584V96H395.648V84.208H405.614ZM414.987 83.988C416.439 83.988 417.605 84.494 418.485 85.506C419.38 86.518 419.827 88.0433 419.827 90.082C419.827 91.4167 419.622 92.546 419.211 93.47C418.815 94.3793 418.25 95.0687 417.517 95.538C416.798 95.9927 415.948 96.22 414.965 96.22C414.364 96.22 413.828 96.1393 413.359 95.978C412.89 95.8167 412.486 95.6113 412.149 95.362C411.826 95.098 411.548 94.812 411.313 94.504H411.181C411.21 94.7533 411.24 95.0687 411.269 95.45C411.298 95.8313 411.313 96.1613 411.313 96.44V101.28H409.377V84.208H410.961L411.225 85.814H411.313C411.548 85.4767 411.826 85.1687 412.149 84.89C412.486 84.6113 412.882 84.3913 413.337 84.23C413.806 84.0687 414.356 83.988 414.987 83.988ZM414.635 85.616C413.843 85.616 413.205 85.77 412.721 86.078C412.237 86.3713 411.885 86.8187 411.665 87.42C411.445 88.0213 411.328 88.784 411.313 89.708V90.082C411.313 91.05 411.416 91.8713 411.621 92.546C411.826 93.2207 412.171 93.734 412.655 94.086C413.154 94.438 413.828 94.614 414.679 94.614C415.398 94.614 415.984 94.416 416.439 94.02C416.908 93.624 417.253 93.0887 417.473 92.414C417.708 91.7247 417.825 90.94 417.825 90.06C417.825 88.7107 417.561 87.6327 417.033 86.826C416.52 86.0193 415.72 85.616 414.635 85.616ZM433.164 90.082C433.164 91.0647 433.032 91.9373 432.768 92.7C432.519 93.448 432.152 94.086 431.668 94.614C431.199 95.142 430.619 95.5453 429.93 95.824C429.255 96.088 428.5 96.22 427.664 96.22C426.887 96.22 426.168 96.088 425.508 95.824C424.848 95.5453 424.276 95.142 423.792 94.614C423.308 94.086 422.927 93.448 422.648 92.7C422.384 91.9373 422.252 91.0647 422.252 90.082C422.252 88.7767 422.472 87.6767 422.912 86.782C423.352 85.8727 423.983 85.1833 424.804 84.714C425.625 84.23 426.601 83.988 427.73 83.988C428.801 83.988 429.739 84.23 430.546 84.714C431.367 85.1833 432.005 85.8727 432.46 86.782C432.929 87.6767 433.164 88.7767 433.164 90.082ZM424.254 90.082C424.254 91.006 424.371 91.8127 424.606 92.502C424.855 93.1767 425.237 93.6973 425.75 94.064C426.263 94.4307 426.916 94.614 427.708 94.614C428.5 94.614 429.153 94.4307 429.666 94.064C430.179 93.6973 430.553 93.1767 430.788 92.502C431.037 91.8127 431.162 91.006 431.162 90.082C431.162 89.1433 431.037 88.344 430.788 87.684C430.539 87.024 430.157 86.518 429.644 86.166C429.145 85.7993 428.493 85.616 427.686 85.616C426.483 85.616 425.611 86.012 425.068 86.804C424.525 87.596 424.254 88.6887 424.254 90.082ZM443.272 84.032C444.446 84.1347 445.465 84.4427 446.33 84.956C447.21 85.4693 447.892 86.1587 448.376 87.024C448.86 87.8893 449.102 88.916 449.102 90.104C449.102 91.292 448.868 92.326 448.398 93.206C447.929 94.0713 447.262 94.7607 446.396 95.274C445.531 95.7727 444.49 96.0733 443.272 96.176V101.28H441.38V96.176C440.222 96.0733 439.202 95.7727 438.322 95.274C437.442 94.7607 436.76 94.0713 436.276 93.206C435.792 92.326 435.55 91.292 435.55 90.104C435.55 88.9013 435.785 87.8673 436.254 87.002C436.724 86.122 437.398 85.4327 438.278 84.934C439.158 84.4207 440.214 84.12 441.446 84.032V79.28H443.272V84.032ZM441.446 85.638C440.552 85.726 439.818 85.9533 439.246 86.32C438.674 86.6867 438.249 87.1853 437.97 87.816C437.706 88.4467 437.574 89.2093 437.574 90.104C437.574 90.984 437.706 91.7467 437.97 92.392C438.249 93.0227 438.674 93.5287 439.246 93.91C439.818 94.2767 440.552 94.504 441.446 94.592V85.638ZM443.272 94.592C444.152 94.4893 444.871 94.2547 445.428 93.888C446 93.5213 446.418 93.0227 446.682 92.392C446.961 91.7467 447.1 90.984 447.1 90.104C447.1 89.224 446.961 88.4687 446.682 87.838C446.404 87.2073 445.978 86.7087 445.406 86.342C444.849 85.9753 444.138 85.748 443.272 85.66V94.592ZM454 91.402C454 91.534 453.992 91.7247 453.978 91.974C453.978 92.2087 453.97 92.4653 453.956 92.744C453.941 93.008 453.926 93.2647 453.912 93.514C453.897 93.7487 453.882 93.9393 453.868 94.086L460.182 84.208H462.558V96H460.754V89.048C460.754 88.8133 460.754 88.5053 460.754 88.124C460.768 87.7427 460.783 87.3687 460.798 87.002C460.812 86.6207 460.827 86.3347 460.842 86.144L454.572 96H452.174V84.208H454V91.402ZM475.286 96H473.328V85.814H469.852C469.706 87.6767 469.522 89.268 469.302 90.588C469.082 91.8933 468.804 92.9567 468.466 93.778C468.129 94.5993 467.726 95.2007 467.256 95.582C466.787 95.9633 466.237 96.154 465.606 96.154C465.416 96.154 465.225 96.1393 465.034 96.11C464.858 96.0953 464.712 96.0587 464.594 96V94.548C464.682 94.5773 464.778 94.5993 464.88 94.614C464.983 94.6287 465.086 94.636 465.188 94.636C465.511 94.636 465.804 94.504 466.068 94.24C466.332 93.976 466.567 93.5727 466.772 93.03C466.992 92.4873 467.19 91.8053 467.366 90.984C467.542 90.148 467.696 89.1653 467.828 88.036C467.96 86.9067 468.078 85.6307 468.18 84.208H475.286V96ZM484.463 89.048C485.49 89.048 486.341 89.1727 487.015 89.422C487.69 89.6713 488.196 90.0453 488.533 90.544C488.885 91.028 489.061 91.644 489.061 92.392C489.061 93.1253 488.893 93.7633 488.555 94.306C488.233 94.8487 487.727 95.2667 487.037 95.56C486.348 95.8533 485.461 96 484.375 96H479.029V84.208H480.965V89.048H484.463ZM487.125 92.502C487.125 91.7833 486.869 91.2993 486.355 91.05C485.857 90.786 485.153 90.654 484.243 90.654H480.965V94.438H484.287C485.109 94.438 485.783 94.2913 486.311 93.998C486.854 93.7047 487.125 93.206 487.125 92.502Z" fill="black"/>
<path d="M675.924 55.124C675.924 56.3413 675.77 57.4487 675.462 58.446C675.154 59.4287 674.692 60.2793 674.076 60.998C673.475 61.7167 672.719 62.2667 671.81 62.648C670.915 63.0293 669.874 63.22 668.686 63.22C667.454 63.22 666.383 63.0293 665.474 62.648C664.565 62.252 663.809 61.702 663.208 60.998C662.607 60.2793 662.159 59.4213 661.866 58.424C661.573 57.4267 661.426 56.3193 661.426 55.102C661.426 53.4887 661.69 52.0807 662.218 50.878C662.746 49.6753 663.545 48.7367 664.616 48.062C665.701 47.3873 667.065 47.05 668.708 47.05C670.277 47.05 671.597 47.3873 672.668 48.062C673.739 48.722 674.545 49.6607 675.088 50.878C675.645 52.0807 675.924 53.496 675.924 55.124ZM663.516 55.124C663.516 56.444 663.699 57.5807 664.066 58.534C664.433 59.4873 664.997 60.2207 665.76 60.734C666.537 61.2473 667.513 61.504 668.686 61.504C669.874 61.504 670.842 61.2473 671.59 60.734C672.353 60.2207 672.917 59.4873 673.284 58.534C673.651 57.5807 673.834 56.444 673.834 55.124C673.834 53.144 673.423 51.5967 672.602 50.482C671.781 49.3527 670.483 48.788 668.708 48.788C667.52 48.788 666.537 49.0447 665.76 49.558C664.997 50.0567 664.433 50.7827 664.066 51.736C663.699 52.6747 663.516 53.804 663.516 55.124ZM678.525 55.916C678.525 54.2 678.694 52.7407 679.031 51.538C679.383 50.3207 679.919 49.3527 680.637 48.634C681.371 47.9007 682.309 47.4093 683.453 47.16C684.407 46.9547 685.338 46.7713 686.247 46.61C687.157 46.4487 688.007 46.302 688.799 46.17L689.129 47.864C688.748 47.9227 688.323 47.996 687.853 48.084C687.384 48.1573 686.907 48.238 686.423 48.326C685.939 48.3993 685.47 48.48 685.015 48.568C684.575 48.6413 684.187 48.7147 683.849 48.788C683.365 48.8907 682.933 49.0667 682.551 49.316C682.17 49.5507 681.84 49.8733 681.561 50.284C681.297 50.6947 681.085 51.2007 680.923 51.802C680.762 52.4033 680.667 53.1147 680.637 53.936H680.769C680.975 53.6573 681.253 53.3713 681.605 53.078C681.972 52.7847 682.405 52.5353 682.903 52.33C683.417 52.1247 683.996 52.022 684.641 52.022C685.668 52.022 686.519 52.2493 687.193 52.704C687.883 53.144 688.396 53.76 688.733 54.552C689.085 55.344 689.261 56.268 689.261 57.324C689.261 58.6293 689.034 59.722 688.579 60.602C688.125 61.482 687.494 62.142 686.687 62.582C685.881 63.0073 684.942 63.22 683.871 63.22C683.065 63.22 682.331 63.066 681.671 62.758C681.011 62.4353 680.447 61.966 679.977 61.35C679.508 60.734 679.149 59.9713 678.899 59.062C678.65 58.1527 678.525 57.104 678.525 55.916ZM684.025 61.614C684.671 61.614 685.228 61.482 685.697 61.218C686.181 60.954 686.555 60.5213 686.819 59.92C687.083 59.3187 687.215 58.5193 687.215 57.522C687.215 56.3193 686.988 55.3733 686.533 54.684C686.093 53.98 685.36 53.628 684.333 53.628C683.688 53.628 683.101 53.7747 682.573 54.068C682.045 54.3467 681.605 54.6693 681.253 55.036C680.901 55.4027 680.652 55.7107 680.505 55.96C680.505 56.6787 680.557 57.3753 680.659 58.05C680.762 58.7247 680.938 59.3333 681.187 59.876C681.451 60.404 681.811 60.8293 682.265 61.152C682.735 61.46 683.321 61.614 684.025 61.614ZM690.463 51.208H692.531L695.083 57.918C695.23 58.314 695.362 58.6953 695.479 59.062C695.611 59.4287 695.729 59.788 695.831 60.14C695.934 60.4773 696.015 60.8073 696.073 61.13H696.161C696.249 60.7633 696.389 60.2867 696.579 59.7C696.77 59.0987 696.968 58.4973 697.173 57.896L699.571 51.208H701.661L696.579 64.628C696.301 65.3613 695.971 65.9993 695.589 66.542C695.223 67.0993 694.768 67.5247 694.225 67.818C693.697 68.126 693.052 68.28 692.289 68.28C691.937 68.28 691.629 68.258 691.365 68.214C691.101 68.1847 690.874 68.148 690.683 68.104V66.564C690.845 66.5933 691.035 66.6227 691.255 66.652C691.49 66.6813 691.732 66.696 691.981 66.696C692.436 66.696 692.825 66.608 693.147 66.432C693.485 66.2707 693.771 66.0287 694.005 65.706C694.24 65.398 694.438 65.0313 694.599 64.606L695.215 63.044L690.463 51.208ZM705.22 55.498C705.22 56.1873 705.411 56.7007 705.792 57.038C706.188 57.3607 706.753 57.522 707.486 57.522C708.22 57.522 708.887 57.412 709.488 57.192C710.09 56.9573 710.706 56.6493 711.336 56.268V51.208H713.272V63H711.336V57.742C710.676 58.1673 710.024 58.5047 709.378 58.754C708.748 58.9887 707.985 59.106 707.09 59.106C705.888 59.106 704.949 58.7907 704.274 58.16C703.614 57.5293 703.284 56.686 703.284 55.63V51.208H705.22V55.498ZM721.484 51.01C722.922 51.01 723.985 51.3253 724.674 51.956C725.364 52.5867 725.708 53.5913 725.708 54.97V63H724.3L723.926 61.328H723.838C723.501 61.7533 723.149 62.1127 722.782 62.406C722.43 62.6847 722.02 62.89 721.55 63.022C721.096 63.154 720.538 63.22 719.878 63.22C719.174 63.22 718.536 63.0953 717.964 62.846C717.407 62.5967 716.967 62.2153 716.644 61.702C716.322 61.174 716.16 60.514 716.16 59.722C716.16 58.5487 716.622 57.6467 717.546 57.016C718.47 56.3707 719.893 56.0187 721.814 55.96L723.816 55.894V55.19C723.816 54.2073 723.604 53.5253 723.178 53.144C722.753 52.7627 722.152 52.572 721.374 52.572C720.758 52.572 720.172 52.6673 719.614 52.858C719.057 53.034 718.536 53.2393 718.052 53.474L717.458 52.022C717.972 51.7433 718.58 51.5087 719.284 51.318C719.988 51.1127 720.722 51.01 721.484 51.01ZM722.056 57.302C720.59 57.3607 719.57 57.5953 718.998 58.006C718.441 58.4167 718.162 58.996 718.162 59.744C718.162 60.404 718.36 60.888 718.756 61.196C719.167 61.504 719.688 61.658 720.318 61.658C721.316 61.658 722.144 61.3867 722.804 60.844C723.464 60.2867 723.794 59.436 723.794 58.292V57.236L722.056 57.302ZM738.898 46.324C738.84 47.0573 738.656 47.6733 738.348 48.172C738.055 48.6707 737.615 49.0447 737.028 49.294C736.442 49.5433 735.679 49.668 734.74 49.668C733.787 49.668 733.017 49.5433 732.43 49.294C731.858 49.0447 731.44 48.678 731.176 48.194C730.912 47.6953 730.751 47.072 730.692 46.324H732.496C732.57 47.116 732.775 47.6513 733.112 47.93C733.464 48.194 734.022 48.326 734.784 48.326C735.459 48.326 735.987 48.1867 736.368 47.908C736.764 47.6147 736.999 47.0867 737.072 46.324H738.898ZM731.176 58.402C731.176 58.534 731.169 58.7247 731.154 58.974C731.154 59.2087 731.147 59.4653 731.132 59.744C731.118 60.008 731.103 60.2647 731.088 60.514C731.074 60.7487 731.059 60.9393 731.044 61.086L737.358 51.208H739.734V63H737.93V56.048C737.93 55.8133 737.93 55.5053 737.93 55.124C737.945 54.7427 737.96 54.3687 737.974 54.002C737.989 53.6207 738.004 53.3347 738.018 53.144L731.748 63H729.35V51.208H731.176V58.402ZM751.627 52.836H747.777V63H745.863V52.836H742.057V51.208H751.627V52.836ZM758.289 50.988C759.301 50.988 760.167 51.208 760.885 51.648C761.619 52.088 762.176 52.7113 762.557 53.518C762.953 54.31 763.151 55.2413 763.151 56.312V57.478H755.077C755.107 58.8127 755.444 59.832 756.089 60.536C756.749 61.2253 757.666 61.57 758.839 61.57C759.587 61.57 760.247 61.504 760.819 61.372C761.406 61.2253 762.007 61.02 762.623 60.756V62.45C762.022 62.714 761.428 62.9047 760.841 63.022C760.255 63.154 759.558 63.22 758.751 63.22C757.637 63.22 756.647 62.9927 755.781 62.538C754.931 62.0833 754.263 61.4087 753.779 60.514C753.31 59.6047 753.075 58.4973 753.075 57.192C753.075 55.9013 753.288 54.794 753.713 53.87C754.153 52.946 754.762 52.2347 755.539 51.736C756.331 51.2373 757.248 50.988 758.289 50.988ZM758.267 52.572C757.343 52.572 756.61 52.8727 756.067 53.474C755.539 54.0607 755.224 54.882 755.121 55.938H761.127C761.127 55.2633 761.025 54.6767 760.819 54.178C760.614 53.6793 760.299 53.2907 759.873 53.012C759.463 52.7187 758.927 52.572 758.267 52.572ZM770.883 63.22C769.842 63.22 768.911 63.0073 768.089 62.582C767.283 62.1567 766.645 61.4967 766.175 60.602C765.721 59.7073 765.493 58.5633 765.493 57.17C765.493 55.718 765.735 54.5373 766.219 53.628C766.703 52.7187 767.356 52.0513 768.177 51.626C769.013 51.2007 769.959 50.988 771.015 50.988C771.617 50.988 772.196 51.054 772.753 51.186C773.311 51.3033 773.765 51.45 774.117 51.626L773.523 53.232C773.171 53.1 772.761 52.9753 772.291 52.858C771.822 52.7407 771.382 52.682 770.971 52.682C770.179 52.682 769.527 52.8507 769.013 53.188C768.5 53.5253 768.119 54.024 767.869 54.684C767.62 55.344 767.495 56.1653 767.495 57.148C767.495 58.0867 767.62 58.886 767.869 59.546C768.119 60.206 768.493 60.7047 768.991 61.042C769.49 61.3793 770.113 61.548 770.861 61.548C771.507 61.548 772.071 61.482 772.555 61.35C773.054 61.218 773.509 61.0567 773.919 60.866V62.582C773.523 62.7873 773.083 62.9413 772.599 63.044C772.13 63.1613 771.558 63.22 770.883 63.22ZM782.158 56.048C783.184 56.048 784.035 56.1727 784.71 56.422C785.384 56.6713 785.89 57.0453 786.228 57.544C786.58 58.028 786.756 58.644 786.756 59.392C786.756 60.1253 786.587 60.7633 786.25 61.306C785.927 61.8487 785.421 62.2667 784.732 62.56C784.042 62.8533 783.155 63 782.07 63H776.724V51.208H778.66V56.048H782.158ZM784.82 59.502C784.82 58.7833 784.563 58.2993 784.05 58.05C783.551 57.786 782.847 57.654 781.938 57.654H778.66V61.438H781.982C782.803 61.438 783.478 61.2913 784.006 60.998C784.548 60.7047 784.82 60.206 784.82 59.502Z" fill="black"/>
</svg>
