<svg width="257" height="330" viewBox="0 0 257 330" fill="none" xmlns="http://www.w3.org/2000/svg">
<line x1="40" y1="66" x2="40" y2="271" stroke="black" stroke-width="2"/>
<circle cx="39" cy="45" r="39" fill="#9587FF"/>
<circle cx="47" cy="38" r="37" stroke="black" stroke-width="2"/>
<circle cx="39" cy="168" r="39" fill="#6BDCFF"/>
<circle cx="39" cy="291" r="39" fill="#7BC5E8"/>
<circle cx="47" cy="159" r="37" stroke="black" stroke-width="2"/>
<circle cx="47" cy="282" r="37" stroke="black" stroke-width="2"/>
<path d="M120.115 41.36C118.899 41.36 117.8 41.5733 116.819 42C115.837 42.4053 115.005 43.0133 114.323 43.824C113.64 44.6133 113.117 45.584 112.755 46.736C112.392 47.8667 112.211 49.1467 112.211 50.576C112.211 52.4533 112.499 54.0853 113.075 55.472C113.672 56.8587 114.547 57.9253 115.699 58.672C116.872 59.4187 118.333 59.792 120.083 59.792C121.085 59.792 122.035 59.7067 122.931 59.536C123.827 59.3653 124.701 59.152 125.555 58.896V61.392C124.701 61.712 123.816 61.9467 122.899 62.096C122.003 62.2453 120.925 62.32 119.667 62.32C117.341 62.32 115.4 61.84 113.843 60.88C112.285 59.92 111.112 58.5547 110.323 56.784C109.555 55.0133 109.171 52.9333 109.171 50.544C109.171 48.816 109.405 47.2373 109.875 45.808C110.365 44.3787 111.069 43.1413 111.987 42.096C112.925 41.0507 114.077 40.2507 115.443 39.696C116.808 39.12 118.376 38.832 120.147 38.832C121.32 38.832 122.451 38.9493 123.539 39.184C124.627 39.4187 125.597 39.7493 126.451 40.176L125.299 42.608C124.595 42.288 123.805 42 122.931 41.744C122.077 41.488 121.139 41.36 120.115 41.36ZM140.302 44.848H143.374L136.046 53.104L143.982 62H140.718L132.974 53.296V62H130.158V44.848H132.974V53.168L140.302 44.848ZM161.382 53.392C161.382 54.8213 161.19 56.0907 160.806 57.2C160.443 58.288 159.91 59.216 159.206 59.984C158.523 60.752 157.681 61.3387 156.678 61.744C155.697 62.128 154.598 62.32 153.382 62.32C152.251 62.32 151.206 62.128 150.246 61.744C149.286 61.3387 148.454 60.752 147.75 59.984C147.046 59.216 146.491 58.288 146.086 57.2C145.702 56.0907 145.51 54.8213 145.51 53.392C145.51 51.4933 145.83 49.8933 146.47 48.592C147.11 47.2693 148.027 46.2667 149.222 45.584C150.417 44.88 151.835 44.528 153.478 44.528C155.035 44.528 156.401 44.88 157.574 45.584C158.769 46.2667 159.697 47.2693 160.358 48.592C161.041 49.8933 161.382 51.4933 161.382 53.392ZM148.422 53.392C148.422 54.736 148.593 55.9093 148.934 56.912C149.297 57.8933 149.851 58.6507 150.598 59.184C151.345 59.7173 152.294 59.984 153.446 59.984C154.598 59.984 155.547 59.7173 156.294 59.184C157.041 58.6507 157.585 57.8933 157.926 56.912C158.289 55.9093 158.47 54.736 158.47 53.392C158.47 52.0267 158.289 50.864 157.926 49.904C157.563 48.944 157.009 48.208 156.262 47.696C155.537 47.1627 154.587 46.896 153.414 46.896C151.665 46.896 150.395 47.472 149.606 48.624C148.817 49.776 148.422 51.3653 148.422 53.392ZM174.005 44.528C176.117 44.528 177.813 45.264 179.093 46.736C180.394 48.208 181.045 50.4267 181.045 53.392C181.045 55.3333 180.746 56.976 180.149 58.32C179.573 59.6427 178.752 60.6453 177.685 61.328C176.64 61.9893 175.402 62.32 173.973 62.32C173.098 62.32 172.32 62.2027 171.637 61.968C170.954 61.7333 170.368 61.4347 169.877 61.072C169.408 60.688 169.002 60.272 168.661 59.824H168.469C168.512 60.1867 168.554 60.6453 168.597 61.2C168.64 61.7547 168.661 62.2347 168.661 62.64V69.68H165.845V44.848H168.149L168.533 47.184H168.661C169.002 46.6933 169.408 46.2453 169.877 45.84C170.368 45.4347 170.944 45.1147 171.605 44.88C172.288 44.6453 173.088 44.528 174.005 44.528ZM173.493 46.896C172.341 46.896 171.413 47.12 170.709 47.568C170.005 47.9947 169.493 48.6453 169.173 49.52C168.853 50.3947 168.682 51.504 168.661 52.848V53.392C168.661 54.8 168.81 55.9947 169.109 56.976C169.408 57.9573 169.909 58.704 170.613 59.216C171.338 59.728 172.32 59.984 173.557 59.984C174.602 59.984 175.456 59.696 176.117 59.12C176.8 58.544 177.301 57.7653 177.621 56.784C177.962 55.7813 178.133 54.64 178.133 53.36C178.133 51.3973 177.749 49.8293 176.981 48.656C176.234 47.4827 175.072 46.896 173.493 46.896ZM200.444 53.392C200.444 54.8213 200.253 56.0907 199.869 57.2C199.506 58.288 198.973 59.216 198.269 59.984C197.586 60.752 196.743 61.3387 195.741 61.744C194.759 62.128 193.661 62.32 192.445 62.32C191.314 62.32 190.269 62.128 189.309 61.744C188.349 61.3387 187.517 60.752 186.812 59.984C186.109 59.216 185.554 58.288 185.149 57.2C184.765 56.0907 184.573 54.8213 184.573 53.392C184.573 51.4933 184.893 49.8933 185.533 48.592C186.173 47.2693 187.09 46.2667 188.285 45.584C189.479 44.88 190.898 44.528 192.541 44.528C194.098 44.528 195.463 44.88 196.637 45.584C197.831 46.2667 198.759 47.2693 199.421 48.592C200.103 49.8933 200.444 51.4933 200.444 53.392ZM187.485 53.392C187.485 54.736 187.655 55.9093 187.997 56.912C188.359 57.8933 188.914 58.6507 189.661 59.184C190.407 59.7173 191.357 59.984 192.509 59.984C193.661 59.984 194.61 59.7173 195.357 59.184C196.103 58.6507 196.647 57.8933 196.989 56.912C197.351 55.9093 197.533 54.736 197.533 53.392C197.533 52.0267 197.351 50.864 196.989 49.904C196.626 48.944 196.071 48.208 195.325 47.696C194.599 47.1627 193.65 46.896 192.477 46.896C190.727 46.896 189.458 47.472 188.669 48.624C187.879 49.776 187.485 51.3653 187.485 53.392ZM211.788 62.32C210.273 62.32 208.918 62.0107 207.724 61.392C206.55 60.7733 205.622 59.8133 204.94 58.512C204.278 57.2107 203.948 55.5467 203.948 53.52C203.948 51.408 204.3 49.6907 205.004 48.368C205.708 47.0453 206.657 46.0747 207.852 45.456C209.068 44.8373 210.444 44.528 211.98 44.528C212.854 44.528 213.697 44.624 214.508 44.816C215.318 44.9867 215.98 45.2 216.492 45.456L215.628 47.792C215.116 47.6 214.518 47.4187 213.836 47.248C213.153 47.0773 212.513 46.992 211.916 46.992C210.764 46.992 209.814 47.2373 209.068 47.728C208.321 48.2187 207.766 48.944 207.404 49.904C207.041 50.864 206.86 52.0587 206.86 53.488C206.86 54.8533 207.041 56.016 207.404 56.976C207.766 57.936 208.31 58.6613 209.036 59.152C209.761 59.6427 210.668 59.888 211.756 59.888C212.694 59.888 213.516 59.792 214.22 59.6C214.945 59.408 215.606 59.1733 216.204 58.896V61.392C215.628 61.6907 214.988 61.9147 214.284 62.064C213.601 62.2347 212.769 62.32 211.788 62.32ZM232.123 47.216H226.523V62H223.739V47.216H218.203V44.848H232.123V47.216ZM243.405 51.888C244.899 51.888 246.136 52.0693 247.117 52.432C248.099 52.7947 248.835 53.3387 249.325 54.064C249.837 54.768 250.093 55.664 250.093 56.752C250.093 57.8187 249.848 58.7467 249.357 59.536C248.888 60.3253 248.152 60.9333 247.149 61.36C246.147 61.7867 244.856 62 243.277 62H235.501V44.848H238.317V51.888H243.405ZM247.277 56.912C247.277 55.8667 246.904 55.1627 246.157 54.8C245.432 54.416 244.408 54.224 243.085 54.224H238.317V59.728H243.149C244.344 59.728 245.325 59.5147 246.093 59.088C246.883 58.6613 247.277 57.936 247.277 56.912Z" fill="black"/>
<path d="M115.555 184H112.675V163.68H105.539V161.152H122.659V163.68H115.555V184ZM138.382 175.392C138.382 176.821 138.19 178.091 137.806 179.2C137.443 180.288 136.91 181.216 136.206 181.984C135.523 182.752 134.681 183.339 133.678 183.744C132.697 184.128 131.598 184.32 130.382 184.32C129.251 184.32 128.206 184.128 127.246 183.744C126.286 183.339 125.454 182.752 124.75 181.984C124.046 181.216 123.491 180.288 123.086 179.2C122.702 178.091 122.51 176.821 122.51 175.392C122.51 173.493 122.83 171.893 123.47 170.592C124.11 169.269 125.027 168.267 126.222 167.584C127.417 166.88 128.835 166.528 130.478 166.528C132.035 166.528 133.401 166.88 134.574 167.584C135.769 168.267 136.697 169.269 137.358 170.592C138.041 171.893 138.382 173.493 138.382 175.392ZM125.422 175.392C125.422 176.736 125.593 177.909 125.934 178.912C126.297 179.893 126.851 180.651 127.598 181.184C128.345 181.717 129.294 181.984 130.446 181.984C131.598 181.984 132.547 181.717 133.294 181.184C134.041 180.651 134.585 179.893 134.926 178.912C135.289 177.909 135.47 176.736 135.47 175.392C135.47 174.027 135.289 172.864 134.926 171.904C134.563 170.944 134.009 170.208 133.262 169.696C132.537 169.163 131.587 168.896 130.414 168.896C128.665 168.896 127.395 169.472 126.606 170.624C125.817 171.776 125.422 173.365 125.422 175.392ZM144.997 173.088C144.997 174.091 145.274 174.837 145.829 175.328C146.405 175.797 147.226 176.032 148.293 176.032C149.359 176.032 150.33 175.872 151.205 175.552C152.079 175.211 152.975 174.763 153.893 174.208V166.848H156.708V184H153.893V176.352C152.933 176.971 151.983 177.461 151.045 177.824C150.127 178.165 149.018 178.336 147.717 178.336C145.967 178.336 144.602 177.877 143.621 176.96C142.661 176.043 142.181 174.816 142.181 173.28V166.848H144.997V173.088ZM164.974 166.848V173.984H174.286V166.848H177.102V184H174.286V176.352H164.974V184H162.158V166.848H164.974ZM197.444 175.392C197.444 176.821 197.253 178.091 196.869 179.2C196.506 180.288 195.973 181.216 195.269 181.984C194.586 182.752 193.743 183.339 192.741 183.744C191.759 184.128 190.661 184.32 189.445 184.32C188.314 184.32 187.269 184.128 186.309 183.744C185.349 183.339 184.517 182.752 183.812 181.984C183.109 181.216 182.554 180.288 182.149 179.2C181.765 178.091 181.573 176.821 181.573 175.392C181.573 173.493 181.893 171.893 182.533 170.592C183.173 169.269 184.09 168.267 185.285 167.584C186.479 166.88 187.898 166.528 189.541 166.528C191.098 166.528 192.463 166.88 193.637 167.584C194.831 168.267 195.759 169.269 196.421 170.592C197.103 171.893 197.444 173.493 197.444 175.392ZM184.485 175.392C184.485 176.736 184.655 177.909 184.997 178.912C185.359 179.893 185.914 180.651 186.661 181.184C187.407 181.717 188.357 181.984 189.509 181.984C190.661 181.984 191.61 181.717 192.357 181.184C193.103 180.651 193.647 179.893 193.989 178.912C194.351 177.909 194.533 176.736 194.533 175.392C194.533 174.027 194.351 172.864 193.989 171.904C193.626 170.944 193.071 170.208 192.325 169.696C191.599 169.163 190.65 168.896 189.477 168.896C187.727 168.896 186.458 169.472 185.669 170.624C184.879 171.776 184.485 173.365 184.485 175.392ZM208.788 184.32C207.273 184.32 205.918 184.011 204.724 183.392C203.55 182.773 202.622 181.813 201.94 180.512C201.278 179.211 200.948 177.547 200.948 175.52C200.948 173.408 201.3 171.691 202.004 170.368C202.708 169.045 203.657 168.075 204.852 167.456C206.068 166.837 207.444 166.528 208.98 166.528C209.854 166.528 210.697 166.624 211.508 166.816C212.318 166.987 212.98 167.2 213.492 167.456L212.628 169.792C212.116 169.6 211.518 169.419 210.836 169.248C210.153 169.077 209.513 168.992 208.916 168.992C207.764 168.992 206.814 169.237 206.068 169.728C205.321 170.219 204.766 170.944 204.404 171.904C204.041 172.864 203.86 174.059 203.86 175.488C203.86 176.853 204.041 178.016 204.404 178.976C204.766 179.936 205.31 180.661 206.036 181.152C206.761 181.643 207.668 181.888 208.756 181.888C209.694 181.888 210.516 181.792 211.22 181.6C211.945 181.408 212.606 181.173 213.204 180.896V183.392C212.628 183.691 211.988 183.915 211.284 184.064C210.601 184.235 209.769 184.32 208.788 184.32ZM229.123 169.216H223.523V184H220.739V169.216H215.203V166.848H229.123V169.216ZM240.405 173.888C241.899 173.888 243.136 174.069 244.117 174.432C245.099 174.795 245.835 175.339 246.325 176.064C246.837 176.768 247.093 177.664 247.093 178.752C247.093 179.819 246.848 180.747 246.357 181.536C245.888 182.325 245.152 182.933 244.149 183.36C243.147 183.787 241.856 184 240.277 184H232.501V166.848H235.317V173.888H240.405ZM244.277 178.912C244.277 177.867 243.904 177.163 243.157 176.8C242.432 176.416 241.408 176.224 240.085 176.224H235.317V181.728H240.149C241.344 181.728 242.325 181.515 243.093 181.088C243.883 180.661 244.277 179.936 244.277 178.912Z" fill="black"/>
<path d="M125.875 299.504C125.192 301.019 124.499 302.288 123.795 303.312C123.112 304.315 122.302 305.072 121.363 305.584C120.424 306.075 119.23 306.32 117.779 306.32C117.182 306.32 116.616 306.277 116.083 306.192C115.571 306.107 115.102 305.989 114.675 305.84V302.992C115.102 303.184 115.56 303.344 116.051 303.472C116.542 303.579 117.054 303.632 117.587 303.632C118.376 303.632 119.048 303.525 119.603 303.312C120.179 303.077 120.68 302.704 121.107 302.192C121.555 301.68 121.971 300.997 122.355 300.144L113.555 283.152H116.723L123.091 295.728C123.176 295.877 123.262 296.059 123.347 296.272C123.432 296.464 123.518 296.667 123.603 296.88C123.71 297.093 123.795 297.296 123.859 297.488H123.987C124.051 297.339 124.115 297.168 124.179 296.976C124.264 296.763 124.339 296.56 124.403 296.368C124.488 296.155 124.563 295.973 124.627 295.824L130.131 283.152H133.171L125.875 299.504ZM146.722 288.848V303.632H149.218V311.952H146.498V306H134.562V311.952H131.874V303.632H133.25C134.231 302.267 135.042 300.784 135.682 299.184C136.343 297.563 136.834 295.877 137.154 294.128C137.495 292.357 137.676 290.597 137.698 288.848H146.722ZM140.194 291.056C140.108 292.507 139.884 294.011 139.522 295.568C139.159 297.104 138.69 298.576 138.114 299.984C137.559 301.392 136.908 302.608 136.162 303.632H144.002V291.056H140.194ZM167.491 297.392C167.491 298.821 167.299 300.091 166.915 301.2C166.553 302.288 166.019 303.216 165.315 303.984C164.633 304.752 163.79 305.339 162.787 305.744C161.806 306.128 160.707 306.32 159.491 306.32C158.361 306.32 157.315 306.128 156.355 305.744C155.395 305.339 154.563 304.752 153.859 303.984C153.155 303.216 152.601 302.288 152.195 301.2C151.811 300.091 151.619 298.821 151.619 297.392C151.619 295.493 151.939 293.893 152.579 292.592C153.219 291.269 154.137 290.267 155.331 289.584C156.526 288.88 157.945 288.528 159.587 288.528C161.145 288.528 162.51 288.88 163.683 289.584C164.878 290.267 165.806 291.269 166.467 292.592C167.15 293.893 167.491 295.493 167.491 297.392ZM154.531 297.392C154.531 298.736 154.702 299.909 155.043 300.912C155.406 301.893 155.961 302.651 156.707 303.184C157.454 303.717 158.403 303.984 159.555 303.984C160.707 303.984 161.657 303.717 162.403 303.184C163.15 302.651 163.694 301.893 164.035 300.912C164.398 299.909 164.579 298.736 164.579 297.392C164.579 296.027 164.398 294.864 164.035 293.904C163.673 292.944 163.118 292.208 162.371 291.696C161.646 291.163 160.697 290.896 159.523 290.896C157.774 290.896 156.505 291.472 155.715 292.624C154.926 293.776 154.531 295.365 154.531 297.392ZM171.058 295.696C171.058 293.2 171.304 291.077 171.794 289.328C172.306 287.557 173.085 286.149 174.13 285.104C175.197 284.037 176.562 283.323 178.226 282.96C179.613 282.661 180.968 282.395 182.29 282.16C183.613 281.925 184.85 281.712 186.002 281.52L186.482 283.984C185.928 284.069 185.309 284.176 184.626 284.304C183.944 284.411 183.25 284.528 182.546 284.656C181.842 284.763 181.16 284.88 180.498 285.008C179.858 285.115 179.293 285.221 178.802 285.328C178.098 285.477 177.469 285.733 176.914 286.096C176.36 286.437 175.88 286.907 175.474 287.504C175.09 288.101 174.781 288.837 174.546 289.712C174.312 290.587 174.173 291.621 174.13 292.816H174.322C174.621 292.411 175.026 291.995 175.538 291.568C176.072 291.141 176.701 290.779 177.426 290.48C178.173 290.181 179.016 290.032 179.954 290.032C181.448 290.032 182.685 290.363 183.666 291.024C184.669 291.664 185.416 292.56 185.906 293.712C186.418 294.864 186.674 296.208 186.674 297.744C186.674 299.643 186.344 301.232 185.682 302.512C185.021 303.792 184.104 304.752 182.93 305.392C181.757 306.011 180.392 306.32 178.834 306.32C177.661 306.32 176.594 306.096 175.634 305.648C174.674 305.179 173.853 304.496 173.17 303.6C172.488 302.704 171.965 301.595 171.602 300.272C171.24 298.949 171.058 297.424 171.058 295.696ZM179.058 303.984C179.997 303.984 180.808 303.792 181.49 303.408C182.194 303.024 182.738 302.395 183.122 301.52C183.506 300.645 183.698 299.483 183.698 298.032C183.698 296.283 183.368 294.907 182.706 293.904C182.066 292.88 181 292.368 179.506 292.368C178.568 292.368 177.714 292.581 176.946 293.008C176.178 293.413 175.538 293.883 175.026 294.416C174.514 294.949 174.152 295.397 173.938 295.76C173.938 296.805 174.013 297.819 174.162 298.8C174.312 299.781 174.568 300.667 174.93 301.456C175.314 302.224 175.837 302.843 176.498 303.312C177.181 303.76 178.034 303.984 179.058 303.984ZM197.991 306.32C196.476 306.32 195.121 306.011 193.927 305.392C192.753 304.773 191.825 303.813 191.143 302.512C190.481 301.211 190.151 299.547 190.151 297.52C190.151 295.408 190.503 293.691 191.207 292.368C191.911 291.045 192.86 290.075 194.055 289.456C195.271 288.837 196.647 288.528 198.183 288.528C199.057 288.528 199.9 288.624 200.711 288.816C201.521 288.987 202.183 289.2 202.695 289.456L201.831 291.792C201.319 291.6 200.721 291.419 200.039 291.248C199.356 291.077 198.716 290.992 198.119 290.992C196.967 290.992 196.017 291.237 195.271 291.728C194.524 292.219 193.969 292.944 193.607 293.904C193.244 294.864 193.063 296.059 193.063 297.488C193.063 298.853 193.244 300.016 193.607 300.976C193.969 301.936 194.513 302.661 195.239 303.152C195.964 303.643 196.871 303.888 197.959 303.888C198.897 303.888 199.719 303.792 200.423 303.6C201.148 303.408 201.809 303.173 202.407 302.896V305.392C201.831 305.691 201.191 305.915 200.487 306.064C199.804 306.235 198.972 306.32 197.991 306.32ZM218.326 291.216H212.726V306H209.942V291.216H204.406V288.848H218.326V291.216ZM235.496 293.168C235.496 294.235 235.176 295.067 234.536 295.664C233.896 296.261 233.075 296.667 232.072 296.88V297.008C233.139 297.157 234.067 297.541 234.856 298.16C235.646 298.757 236.04 299.696 236.04 300.976C236.04 301.701 235.902 302.373 235.624 302.992C235.368 303.611 234.963 304.144 234.408 304.592C233.854 305.04 233.139 305.392 232.264 305.648C231.39 305.883 230.334 306 229.096 306H221.704V288.848H229.064C230.28 288.848 231.368 288.987 232.328 289.264C233.31 289.52 234.078 289.968 234.632 290.608C235.208 291.227 235.496 292.08 235.496 293.168ZM233.128 300.976C233.128 299.995 232.755 299.291 232.008 298.864C231.262 298.437 230.163 298.224 228.712 298.224H224.52V303.728H228.776C230.184 303.728 231.262 303.525 232.008 303.12C232.755 302.693 233.128 301.979 233.128 300.976ZM232.648 293.52C232.648 292.709 232.35 292.123 231.752 291.76C231.176 291.376 230.227 291.184 228.904 291.184H224.52V295.888H228.392C229.779 295.888 230.835 295.696 231.56 295.312C232.286 294.928 232.648 294.331 232.648 293.52ZM255.054 297.392C255.054 298.821 254.862 300.091 254.478 301.2C254.115 302.288 253.582 303.216 252.878 303.984C252.195 304.752 251.353 305.339 250.35 305.744C249.369 306.128 248.27 306.32 247.054 306.32C245.923 306.32 244.878 306.128 243.918 305.744C242.958 305.339 242.126 304.752 241.422 303.984C240.718 303.216 240.163 302.288 239.758 301.2C239.374 300.091 239.182 298.821 239.182 297.392C239.182 295.493 239.502 293.893 240.142 292.592C240.782 291.269 241.699 290.267 242.894 289.584C244.089 288.88 245.507 288.528 247.15 288.528C248.707 288.528 250.073 288.88 251.246 289.584C252.441 290.267 253.369 291.269 254.03 292.592C254.713 293.893 255.054 295.493 255.054 297.392ZM242.094 297.392C242.094 298.736 242.265 299.909 242.606 300.912C242.969 301.893 243.523 302.651 244.27 303.184C245.017 303.717 245.966 303.984 247.118 303.984C248.27 303.984 249.219 303.717 249.966 303.184C250.713 302.651 251.257 301.893 251.598 300.912C251.961 299.909 252.142 298.736 252.142 297.392C252.142 296.027 251.961 294.864 251.598 293.904C251.235 292.944 250.681 292.208 249.934 291.696C249.209 291.163 248.259 290.896 247.086 290.896C245.337 290.896 244.067 291.472 243.278 292.624C242.489 293.776 242.094 295.365 242.094 297.392Z" fill="black"/>
</svg>
